Coordinates
version=1
nRows=8
nColumns=34
inDegrees=yes

Units are S.I. units (second, meters, Newtons, ...)
If the header above contains a line with 'inDegrees', this indicates whether rotational values are in degrees (yes) or radians (no).

endheader
time	pelvis_tilt	pelvis_list	pelvis_rotation	pelvis_tx	pelvis_ty	pelvis_tz	hip_flexion_r	hip_adduction_r	hip_rotation_r	knee_angle_r	ankle_angle_r	subtalar_angle_r	mtp_angle_r	hip_flexion_l	hip_adduction_l	hip_rotation_l	knee_angle_l	ankle_angle_l	subtalar_angle_l	mtp_angle_l	lumbar_extension	lumbar_bending	lumbar_rotation	arm_flex_r	arm_add_r	arm_rot_r	elbow_flex_r	pro_sup_r	arm_flex_l	arm_add_l	arm_rot_l	elbow_flex_l	pro_sup_l
      0.00000000	     -0.71883267	      0.41895045	     -9.89372040	     -0.03877007	      1.20783056	     -0.10889520	     -2.86802748	      1.18873392	     -1.35744055	      2.78726941	      3.53960743	     -5.82404520	      0.00000000	     -3.13251865	      1.89946860	     -2.78240873	      3.13462462	      3.93588996	     -6.33061328	      0.00000000	     -1.83212209	      1.08329859	     -5.49518899	      7.35519693	    -10.65037028	     24.48338686	     20.37547644	     74.85315911	     -1.88637919	    -11.00587494	     20.39412619	     21.76288246	     59.74892988
      0.01666670	     -1.94654290	      1.35797961	    -10.23082935	     -0.03667261	      1.20588476	     -0.10837673	     -1.38038184	      0.39954465	     -0.60017135	      2.70304792	      6.69493300	     -3.26009897	      0.00000000	     -1.71300969	      2.82806582	     -4.40915188	      2.75862082	      3.71710722	     -4.48549924	      0.00000000	      1.01473938	      0.45798015	     -5.62223582	      7.05486946	     -9.57612260	     21.65320122	     19.31325487	     74.18138295	     -2.08195865	    -10.16700478	     19.31187515	     19.93736391	     59.86687306
      0.03333330	     -2.39065187	      2.50311784	    -10.72448065	     -0.03603906	      1.20606987	     -0.10701377	     -0.93998391	     -0.69970304	     -1.21568285	      2.11130205	      7.21213189	     -2.00414475	      0.00000000	     -1.17576118	      3.90501472	     -5.85040825	      2.37594536	      4.28709287	     -2.45255371	      0.00000000	      2.20244554	     -0.99403620	     -4.79149693	      6.20066592	     -8.69488545	     16.01952073	     19.94121395	     72.96076588	     -1.90112761	    -10.16171576	     17.16359539	     18.86424314	     60.23794465
      0.05000000	     -1.69404308	      2.83101687	    -10.84154990	     -0.03600490	      1.20895402	     -0.10687562	     -2.02413953	     -1.16315335	     -1.08880072	      1.32296252	      7.15010098	     -1.72733862	      0.00000000	     -2.44558812	      4.52962600	     -6.14076627	      1.18820057	      3.38936423	     -2.70050529	      0.00000000	      1.43229687	     -1.60059445	     -4.51037720	      5.89479568	     -8.22919979	     13.67361755	     20.84558283	     72.61134435	     -1.79369961	    -10.37012250	     16.40310191	     18.80793800	     60.48202809
      0.06666670	     -1.84173147	      3.10099539	    -10.71045377	     -0.03402768	      1.20855977	     -0.10688773	     -2.22262148	     -1.34371932	     -0.83345783	      0.68873037	      7.07475702	     -1.49560656	      0.00000000	     -2.58716678	      4.85466929	     -5.89599642	      0.55175225	      3.18948122	     -2.33284490	      0.00000000	      1.85161163	     -1.88976618	     -4.43334062	      5.69705368	     -7.89528135	     13.32961678	     21.02101812	     72.55209010	     -1.85114843	    -10.50943604	     16.22846899	     18.73547960	     60.47699940
      0.08333330	     -1.92131001	      3.14598953	    -10.53031874	     -0.03453874	      1.20823568	     -0.10694464	     -2.29496730	     -1.28773850	     -0.68516892	      0.43422644	      7.08465341	     -1.40991107	      0.00000000	     -2.68888139	      4.94065697	     -5.91980441	      0.39027510	      3.16949133	     -2.28474470	      0.00000000	      1.99096276	     -1.93441087	     -4.40830399	      5.87544983	     -7.73291934	     13.21595131	     21.15145026	     72.52611459	     -1.60584274	    -10.55007659	     16.14664424	     18.76889878	     60.46171779
      0.10000000	     -1.97478870	      3.20435898	    -10.42146226	     -0.03578791	      1.20873766	     -0.10697664	     -2.46439799	     -1.32561426	     -0.47827359	      0.00000000	      7.06531413	     -1.29073005	      0.00000000	     -2.76406044	      5.03975020	     -5.84037710	      0.21880251	      3.07264382	     -2.12225196	      0.00000000	      1.99917222	     -1.98036640	     -4.29596024	      6.08140485	     -7.54706062	     13.00135862	     21.32287757	     72.46782624	     -1.35882914	    -10.55810456	     15.98530902	     18.74481762	     60.41469097
      0.11666670	     -1.49106573	      3.15584440	    -10.44280547	     -0.03565862	      1.20988903	     -0.10741371	     -3.00124103	     -1.39721302	     -0.23972275	      0.00000000	      6.95216830	     -1.23623726	      0.00000000	     -3.45797036	      5.11186728	     -6.15690367	      0.00000000	      3.24096566	     -1.29952403	      0.00000000	      1.22244116	     -2.00964488	     -3.25471691	      5.33491392	     -7.10786448	      7.89585051	     22.98013680	     71.04427009	     -0.08999455	     -9.80308203	     12.40584340	     17.30652616	     59.15681087
